HIERARCHY
ROOT Hips
{
    OFFSET   0.000000   0.000000   0.000000
    CHANNELS 6 Xposition Yposition Zposition Zrotation Xrotation Yrotation
    JOINT Chest
    {
        OFFSET   0.000000   8.007230   0.000000
        CHANNELS 3 Zrotation Xrotation Yrotation
        JOINT Chest2
        {
            OFFSET   0.000000  22.077100   0.000000
            CHANNELS 3 Zrotation Xrotation Yrotation
            JOINT Neck
            {
                OFFSET   0.000000  23.254800   0.000000
                CHANNELS 3 Zrotation Xrotation Yrotation
                JOINT Head
                {
                    OFFSET   0.000010  14.370000   1.956600
                    CHANNELS 3 Zrotation Xrotation Yrotation
                    End Site
                    {
                        OFFSET   0.000000  19.566000   0.000000
                    }
                }
            }
            JOINT LeftCollar
            {
                OFFSET   3.911900  19.017000  -0.467062
                CHANNELS 3 Zrotation Xrotation Yrotation
                JOINT LeftShoulder
                {
                    OFFSET  10.383700   0.000000   0.000000
                    CHANNELS 3 Zrotation Xrotation Yrotation
                    JOINT LeftElbow
                    {
                        OFFSET  26.662100   0.001193   0.000835
                        CHANNELS 3 Zrotation Xrotation Yrotation
                        JOINT LeftWrist
                        {
                            OFFSET  28.869000  -0.000058  -0.000075
                            CHANNELS 3 Zrotation Xrotation Yrotation
                            JOINT LeftFinger0
                            {
                                OFFSET   2.044660  -2.323460   3.252850
                                CHANNELS 3 Zrotation Xrotation Yrotation
                                JOINT LeftFinger01
                                {
                                    OFFSET   3.088130   0.000000   0.000000
                                    CHANNELS 3 Zrotation Xrotation Yrotation
                                    JOINT LeftFinger02
                                    {
                                        OFFSET   2.639450   0.000000   0.000000
                                        CHANNELS 3 Zrotation Xrotation Yrotation
                                        End Site
                                        {
                                            OFFSET   2.582190   0.000000   0.000000
                                        }
                                    }
                                }
                            }
                            JOINT LeftFinger1
                            {
                                OFFSET   8.364480   0.000000   3.252850
                                CHANNELS 3 Zrotation Xrotation Yrotation
                                JOINT LeftFinger11
                                {
                                    OFFSET   4.646920   0.000000   0.000000
                                    CHANNELS 3 Zrotation Xrotation Yrotation
                                    JOINT LeftFinger12
                                    {
                                        OFFSET   2.323460   0.000000   0.000000
                                        CHANNELS 3 Zrotation Xrotation Yrotation
                                        End Site
                                        {
                                            OFFSET   2.273050   0.000000   0.000000
                                        }
                                    }
                                }
                            }
                            JOINT LeftFinger2
                            {
                                OFFSET   8.364490   0.000016   1.078090
                                CHANNELS 3 Zrotation Xrotation Yrotation
                                JOINT LeftFinger21
                                {
                                    OFFSET   5.111620   0.000000   0.000000
                                    CHANNELS 3 Zrotation Xrotation Yrotation
                                    JOINT LeftFinger22
                                    {
                                        OFFSET   2.788150   0.000012   0.000000
                                        CHANNELS 3 Zrotation Xrotation Yrotation
                                        End Site
                                        {
                                            OFFSET   2.727660   0.000000   0.000000
                                        }
                                    }
                                }
                            }
                            JOINT LeftFinger3
                            {
                                OFFSET   7.899780   0.000014  -1.078090
                                CHANNELS 3 Zrotation Xrotation Yrotation
                                JOINT LeftFinger31
                                {
                                    OFFSET   4.646930   0.000000   0.000000
                                    CHANNELS 3 Zrotation Xrotation Yrotation
                                    JOINT LeftFinger32
                                    {
                                        OFFSET   2.323470   0.000000   0.000000
                                        CHANNELS 3 Zrotation Xrotation Yrotation
                                        End Site
                                        {
                                            OFFSET   2.273050   0.000000   0.000000
                                        }
                                    }
                                }
                            }
                            JOINT LeftFinger4
                            {
                                OFFSET   7.435090   0.000000  -3.252850
                                CHANNELS 3 Zrotation Xrotation Yrotation
                                JOINT LeftFinger41
                                {
                                    OFFSET   3.717550   0.000000   0.000000
                                    CHANNELS 3 Zrotation Xrotation Yrotation
                                    JOINT LeftFinger42
                                    {
                                        OFFSET   1.858770   0.000000   0.000000
                                        CHANNELS 3 Zrotation Xrotation Yrotation
                                        End Site
                                        {
                                            OFFSET   1.818440   0.000000   0.000000
                                        }
                                    }
                                }
                            }
                        }
                    }
                }
            }
            JOINT RightCollar
            {
                OFFSET  -3.911900  19.017000  -0.467063
                CHANNELS 3 Zrotation Xrotation Yrotation
                JOINT RightShoulder
                {
                    OFFSET -10.383700   0.000023   0.000000
                    CHANNELS 3 Zrotation Xrotation Yrotation
                    JOINT RightElbow
                    {
                        OFFSET -26.662100   0.001246   0.001011
                        CHANNELS 3 Zrotation Xrotation Yrotation
                        JOINT RightWrist
                        {
                            OFFSET -28.869000  -0.000026  -0.000078
                            CHANNELS 3 Zrotation Xrotation Yrotation
                            JOINT RightFinger0
                            {
                                OFFSET  -2.044660  -2.323490   3.252850
                                CHANNELS 3 Zrotation Xrotation Yrotation
                                JOINT RightFinger01
                                {
                                    OFFSET  -3.088130   0.000000   0.000000
                                    CHANNELS 3 Zrotation Xrotation Yrotation
                                    JOINT RightFinger02
                                    {
                                        OFFSET  -2.639460   0.000000   0.000000
                                        CHANNELS 3 Zrotation Xrotation Yrotation
                                        End Site
                                        {
                                            OFFSET  -2.582190   0.000000   0.000000
                                        }
                                    }
                                }
                            }
                            JOINT RightFinger1
                            {
                                OFFSET  -8.364480   0.000000   3.252850
                                CHANNELS 3 Zrotation Xrotation Yrotation
                                JOINT RightFinger11
                                {
                                    OFFSET  -4.646920   0.000000   0.000000
                                    CHANNELS 3 Zrotation Xrotation Yrotation
                                    JOINT RightFinger12
                                    {
                                        OFFSET  -2.323470   0.000000   0.000000
                                        CHANNELS 3 Zrotation Xrotation Yrotation
                                        End Site
                                        {
                                            OFFSET  -2.273050   0.000000   0.000000
                                        }
                                    }
                                }
                            }
                            JOINT RightFinger2
                            {
                                OFFSET  -8.364480   0.000000   1.078090
                                CHANNELS 3 Zrotation Xrotation Yrotation
                                JOINT RightFinger21
                                {
                                    OFFSET  -5.111620   0.000000   0.000000
                                    CHANNELS 3 Zrotation Xrotation Yrotation
                                    JOINT RightFinger22
                                    {
                                        OFFSET  -2.788160   0.000000   0.000000
                                        CHANNELS 3 Zrotation Xrotation Yrotation
                                        End Site
                                        {
                                            OFFSET  -2.727660   0.000000   0.000000
                                        }
                                    }
                                }
                            }
                            JOINT RightFinger3
                            {
                                OFFSET  -7.899780   0.000000  -1.078090
                                CHANNELS 3 Zrotation Xrotation Yrotation
                                JOINT RightFinger31
                                {
                                    OFFSET  -4.646930   0.000000   0.000000
                                    CHANNELS 3 Zrotation Xrotation Yrotation
                                    JOINT RightFinger32
                                    {
                                        OFFSET  -2.323470   0.000000   0.000000
                                        CHANNELS 3 Zrotation Xrotation Yrotation
                                        End Site
                                        {
                                            OFFSET  -2.273050   0.000000   0.000000
                                        }
                                    }
                                }
                            }
                            JOINT RightFinger4
                            {
                                OFFSET  -7.435090   0.000000  -3.252850
                                CHANNELS 3 Zrotation Xrotation Yrotation
                                JOINT RightFinger41
                                {
                                    OFFSET  -3.717550   0.000000   0.000000
                                    CHANNELS 3 Zrotation Xrotation Yrotation
                                    JOINT RightFinger42
                                    {
                                        OFFSET  -1.858760   0.000000   0.000000
                                        CHANNELS 3 Zrotation Xrotation Yrotation
                                        End Site
                                        {
                                            OFFSET  -1.818440   0.000000   0.000000
                                        }
                                    }
                                }
                            }
                        }
                    }
                }
            }
        }
    }
    JOINT LeftHip
    {
        OFFSET   9.783010   0.000000   0.000000
        CHANNELS 3 Zrotation Xrotation Yrotation
        JOINT LeftKnee
        {
            OFFSET   0.000073 -41.789100   0.001749
            CHANNELS 3 Zrotation Xrotation Yrotation
            JOINT LeftAnkle
            {
                OFFSET   0.000111 -41.133200  -0.000179
                CHANNELS 3 Zrotation Xrotation Yrotation
                JOINT LeftToe
                {
                    OFFSET   0.000000  -6.358960  14.674500
                    CHANNELS 3 Zrotation Xrotation Yrotation
                    End Site
                    {
                        OFFSET   0.000000   0.000000   3.913200
                    }
                }
            }
        }
    }
    JOINT RightHip
    {
        OFFSET  -9.783010   0.000000   0.000000
        CHANNELS 3 Zrotation Xrotation Yrotation
        JOINT RightKnee
        {
            OFFSET   0.000424 -41.789200   0.005205
            CHANNELS 3 Zrotation Xrotation Yrotation
            JOINT RightAnkle
            {
                OFFSET   0.000000 -41.133200  -0.000155
                CHANNELS 3 Zrotation Xrotation Yrotation
                JOINT RightToe
                {
                    OFFSET   0.000000  -6.358960  14.674500
                    CHANNELS 3 Zrotation Xrotation Yrotation
                    End Site
                    {
                        OFFSET   0.000000   0.000000   3.913200
                    }
                }
            }
        }
    }
}
MOTION
Frames: 4
Frame Time:   0.016667
  3.938890  89.022000  -4.972290  -3.199540 -20.498600   2.809270  -3.470150  20.008000   8.138820 -11.232500  39.169100  19.557500   1.423020  -3.225320   0.079862   2.350440  -6.527020 -12.461100  -3.977100 -12.157000  -0.152125 -54.303700  30.420600 -15.602700  -7.391710 -15.782400 -24.745700  15.262000 -14.161600   6.640460  47.325300  44.415700 -78.267200 -31.729300  -0.002892   0.002468 -10.864600  -0.002586  -0.001507 -37.767500   5.936510  -7.620920 -31.224400   0.013262  -0.001492 -21.857100   0.007030   0.000800 -31.107100  -2.244720   3.708560 -46.769700   0.010185   0.001466 -31.148600   0.001299   0.012227 -31.188200  -2.250000   3.705280 -46.891700   0.010033   0.000512 -31.229800   0.003400   0.010700 -40.120800  -2.799270   3.309830 -60.302500  -0.008014   0.003196 -40.161400  -0.000301  -0.003286  11.953800  -8.315570  15.133100  63.007100   5.213070  54.761200 -25.755000 -44.979100  74.949100  73.309300 -47.465800  68.382300 -43.252500  48.298300  82.926400  39.744100   0.034099  -0.026533  15.563500   0.010528  -0.002475  78.499200   4.131800   0.931055  64.245200  -0.031823   0.054918  48.183900   0.013805   0.046666  88.760900  -0.051203  -0.014065  89.774900  -0.040256   0.093803  67.331100   0.047907   0.055860  89.590300  -5.014360  -0.038479  96.943700  -0.015740   0.091144  72.707700   0.058943   0.034683  88.916500 -10.003900  -0.189795 110.000000  -0.004494  -0.000287  80.000000  -0.001943   0.002561   1.145070  19.621700   6.537620   0.664818  -0.010906  -2.606240   0.649951  -0.828238   1.367170   0.000000   0.000000   0.000000   1.926880  11.775500  -6.204220  -1.763890  18.409200 -12.284500   3.531680  -8.524860   4.215260   0.000000   0.000000   0.000000
  3.954630  89.036800  -4.892730  -3.142940 -20.371200   3.111950  -3.437060  20.034800   8.021240 -11.122900  39.242700  19.294500   1.453720  -3.289330   0.083281   2.410390  -6.655880 -12.371900  -3.956270 -12.188500  -0.173682 -54.072000  30.533400 -15.614600  -7.458080 -16.010200 -25.099800  15.203200 -14.644100   6.698110  47.641900  44.748100 -78.961600 -31.747700  -0.002888   0.002426 -10.873800  -0.002584  -0.001501 -37.849000   5.966820  -7.618930 -31.292700   0.013273  -0.001436 -21.904900   0.006968   0.000854 -31.171700  -2.247590   3.709960 -46.866700   0.010210   0.001524 -31.213200   0.001252   0.012221 -31.255800  -2.253050   3.706650 -46.993100   0.010064   0.000577 -31.297300   0.003356   0.010697 -40.230600  -2.803800   3.310030 -60.467400  -0.008001   0.003191 -40.271300  -0.000275  -0.003242  12.015800  -8.318090  15.237500  63.032500   6.222950  53.904800 -24.964700 -47.159400  78.228200  75.949800 -35.884300  69.405500 -47.633900  50.715400  84.840700  39.746400   0.035239  -0.029269  15.743000   0.019530  -0.007140  74.525400   3.112280   0.992341  60.993500  -0.033016   0.068145  45.745100   0.016992   0.054989  85.755400  -0.035539  -0.005552  85.340200  -0.040392   0.086361  64.005100   0.042618   0.055885  90.281300  -5.032190   0.019169  94.179300  -0.016354   0.092832  70.634500   0.059764   0.036159  88.848500 -10.004000  -0.203275 110.000000  -0.004542  -0.000259  80.000000  -0.001835   0.002599   1.200990  19.484200   6.544820   0.638990  -0.008421  -2.713040   0.638916  -0.799339   1.176220  -0.000000   0.000000  -0.000000   1.979770  11.764300  -6.196620  -1.738610  18.295500 -12.437800   3.513530  -8.488830   4.067920   0.000000   0.000000   0.000000
  3.974230  89.048300  -4.826600  -3.067090 -20.250300   3.349840  -3.426340  20.060900   7.930820 -11.072200  39.304700  19.099300   1.501500  -3.370100   0.088505   2.497780  -6.817180 -12.336300  -3.942290 -12.229100  -0.164317 -53.766200  30.821900 -15.815500  -7.519370 -16.437800 -25.340800  14.947300 -14.547800   6.644700  48.085400  45.077900 -79.499300 -31.677000  -0.002888   0.002399 -10.838500  -0.002584  -0.001502 -37.759600   6.031730  -7.711600 -31.227800   0.013285  -0.001376 -21.859500   0.006909   0.000906 -31.113700  -2.189430   3.621530 -46.773000   0.010238   0.001577 -31.150900   0.001206   0.012214 -31.202000  -2.194980   3.618170 -46.905900   0.010101   0.000637 -31.239200   0.003311   0.010699 -40.147200  -2.731110   3.232900 -60.335000  -0.007989   0.003190 -40.183100  -0.000249  -0.003197  12.004500  -8.216910  15.295500  63.094800   6.929020  53.659000 -25.469100 -48.900900  79.980200  77.980300 -25.785300  70.004000 -51.579500  52.246300  83.056500  39.202700  -0.095019  -0.006147  15.577200  -0.069106   0.021997  69.895200   0.059723  -0.044996  57.145400  -0.022126   0.020726  42.859000  -0.000183   0.021044  80.799100  -0.129924  -0.017732  80.358600   0.015081   0.061728  60.268900   0.048222   0.015386  89.450100  -5.004290  -0.020904  90.668300   0.026636   0.044720  68.001300   0.041411  -0.005745  89.630300  -9.976220  -0.050383 110.000000  -0.004595  -0.000238  80.000000  -0.001724   0.002626   1.187740  19.386900   6.539920   0.640478  -0.034051  -2.761570   0.635855  -0.768408   1.032790   0.000000   0.000000   0.000000   1.967870  11.762300  -6.240650  -1.716260  18.188200 -12.545500   3.490580  -8.465130   4.000110   0.000000   0.000000   0.000000
  3.993500  89.053800  -4.771060  -3.032220 -20.185800   3.461040  -3.425900  20.076400   7.855960 -11.044200  39.347500  18.939500   1.546030  -3.416520   0.091885   2.564810  -6.911160 -12.269300  -3.936980 -12.263000  -0.154946 -53.504500  31.065000 -16.087000  -7.489210 -16.735400 -25.453900  14.746000 -14.352000   6.566320  48.460200  45.307800 -79.839800 -31.569900  -0.002888   0.002376 -10.785000  -0.002584  -0.001503 -37.639000   6.103280  -7.850150 -31.138800   0.013296  -0.001316 -21.797200   0.006851   0.000957 -31.038100  -2.102790   3.488540 -46.653700   0.010266   0.001629 -31.071400   0.001161   0.012208 -31.130400  -2.108410   3.485150 -46.792400   0.010139   0.000696 -31.163700   0.003269   0.010701 -40.037100  -2.622810   3.116590 -60.163200  -0.007976   0.003189 -40.068700  -0.000221  -0.003152  11.954800  -8.022560  15.307800  63.023500   7.566640  53.718200 -26.243700 -50.346700  80.317000  78.931600 -20.816600  70.610400 -57.131700  53.522600  80.934600  37.913900  -0.289123   0.031255  14.980700  -0.195714   0.065481  64.754800  -2.156790  -1.081630  52.945700  -0.006202  -0.044101  39.709200  -0.020841  -0.025661  75.191900  -0.386165  -0.102998  75.197400   0.070554   0.033296  56.398100   0.053826  -0.025297  87.071700  -4.954290  -0.186717  86.586500   0.074816  -0.020615  64.939900   0.015977  -0.057045  90.411900  -9.948370   0.102483 110.000000  -0.004645  -0.000219  80.000000  -0.001613   0.002651   1.153810  19.345400   6.531570   0.643465  -0.059681  -2.771490   0.634627  -0.752375   0.966720   0.000000   0.000000   0.000000   1.956060  11.761200  -6.284700  -1.704440  18.131000 -12.589400   3.463960  -8.449910   3.983820   0.000000   0.000000   0.000000
